<svg id="svg_logos" data-name="svg logos" xmlns="http://www.w3.org/2000/svg" viewBox="0 0 1024 985.79"><defs><style>.cls-1{fill:#e1282f;}</style></defs><circle class="cls-1" cx="451.96" cy="83.33" r="64.22" transform="translate(73.45 324.89) rotate(-45)"/><circle class="cls-1" cx="922.79" cy="884.58" r="101.21"/><circle class="cls-1" cx="44.67" cy="903.68" r="44.67" transform="translate(-859.99 899.15) rotate(-88.09)"/><path class="cls-1" d="M451.62,215.43C235.23,215.43,60,390.63,60,607s175.2,391.59,391.59,391.59S843.21,823.41,843.21,607,668,215.43,451.62,215.43ZM186.37,454.85,450.92,302,714.78,454.85V593.06L593.32,554V525.35L450.92,443l-104.7,60.72,368.56,118V759.89L450.22,912.76,185.67,760.59V621.68l122.16,38.39v28.62l142.39,82.37,106.1-61.43-370-117.27Z" transform="translate(0 -19.11)"/></svg>