<svg id="svg_logos" data-name="svg logos" xmlns="http://www.w3.org/2000/svg" viewBox="0 0 1024 1024"><defs><style>.cls-1{fill:#02679a;}.cls-2{fill:#fff;}</style></defs><path class="cls-1" d="M0,73.35C0,32.86,33.9,0,75.68,0H948.32C990.12,0,1024,32.86,1024,73.35V950.66c0,40.5-33.88,73.34-75.68,73.34H75.68C33.9,1024,0,991.16,0,950.67V73.34Z"/><path class="cls-2" d="M311.18,857v-461H158V857H311.18ZM234.6,333c53.42,0,86.68-35.4,86.68-79.64-1-45.25-33.26-79.66-85.66-79.66s-86.7,34.41-86.7,79.66c0,44.24,33.25,79.64,84.68,79.64h1ZM396,857H549.22V599.53c0-13.76,1-27.55,5-37.38,11.07-27.54,36.28-56,78.62-56,55.43,0,77.62,42.27,77.62,104.25V857H863.73V592.62c0-141.59-75.59-207.48-176.4-207.48-82.65,0-119,46.19-139.12,77.66h1V396H396c2,43.25,0,461,0,461Z"/></svg>