<svg id="svg_logos" data-name="svg logos" xmlns="http://www.w3.org/2000/svg" xmlns:xlink="http://www.w3.org/1999/xlink" viewBox="0 0 1024 1024"><defs><style>.cls-1{fill:url(#linear-gradient);}.cls-2{fill:url(#linear-gradient-2);}</style><linearGradient id="linear-gradient" x1="1.5" y1="1024.5" x2="4.18" y2="1021.85" gradientTransform="matrix(189.38, 0, 0, -189.81, -188.24, 194551.97)" gradientUnits="userSpaceOnUse"><stop offset="0" stop-color="#3a7fb9"/><stop offset="1" stop-color="#376a95"/></linearGradient><linearGradient id="linear-gradient-2" x1="2.8" y1="1023.13" x2="5.67" y2="1020.4" gradientTransform="matrix(189.38, 0, 0, -189.81, -122.24, 194616.27)" gradientUnits="userSpaceOnUse"><stop offset="0" stop-color="#fee053"/><stop offset="1" stop-color="#ffc433"/></linearGradient></defs><g id="python"><path class="cls-1" d="M508.31,0c-260,0-243.72,113.32-243.72,113.32l.29,117.4H513V266H166.35S0,247,0,510.68,145.19,765,145.19,765h86.65V642.64s-4.67-145.95,142.87-145.95h246S759,498.94,759,362.4V136.63S780,0,508.31,0ZM371.52,79a44.86,44.86,0,1,1-44.63,44.86A44.7,44.7,0,0,1,371.52,79Z"/><path class="cls-2" d="M515.69,1024c260,0,243.72-113.32,243.72-113.32l-.29-117.4H511.05V758H857.66S1024,777,1024,513.32,878.81,259,878.81,259H792.16V381.36s4.67,145.95-142.87,145.95h-246S265,525.06,265,661.6V887.37S244,1024,515.69,1024Zm136.79-79a44.86,44.86,0,1,1,44.63-44.86,44.7,44.7,0,0,1-44.63,44.86Z"/></g></svg>