<svg id="java" xmlns="http://www.w3.org/2000/svg" viewBox="0 0 755.22 1024"><defs><style>.cls-1{fill:#5482a2;}.cls-2{fill:#e67125;}</style></defs><path class="cls-1" d="M377.62,791.92s-39.14,22.75,27.84,30.45c81.15,9.26,122.62,7.93,212-9a369,369,0,0,0,56.35,27.51c-200.46,85.91-453.68-5-296.23-49" transform="translate(-134.39)"/><path class="cls-1" d="M353.12,679.8s-43.89,32.49,23.14,39.43c86.68,8.94,155.14,9.67,273.59-13.14A121.35,121.35,0,0,0,692,731.78c-242.37,70.87-512.32,5.59-338.87-52" transform="translate(-134.39)"/><path class="cls-2" d="M559.62,489.63c49.4,56.86-13,108-13,108s125.42-64.75,67.82-145.82c-53.79-75.61-95.05-113.18,128.29-242.7,0,0-350.56,87.55-183.13,280.48" transform="translate(-134.39)"/><path class="cls-1" d="M824.75,874.84s29,23.86-31.9,42.32c-115.7,35.05-481.58,45.64-583.22,1.4-36.54-15.9,32-38,53.53-42.59,22.48-4.87,35.32-4,35.32-4-40.63-28.63-262.63,56.2-112.76,80.5,408.71,66.28,745-29.85,639-77.67" transform="translate(-134.39)"/><path class="cls-1" d="M396.43,563.64s-186.11,44.21-65.9,60.26c50.75,6.8,151.93,5.26,246.17-2.64,77-6.5,154.36-20.31,154.36-20.31s-27.16,11.63-46.81,25c-189,49.7-554.09,26.58-449-24.26,88.89-43,161.16-38.1,161.16-38.1" transform="translate(-134.39)"/><path class="cls-1" d="M730.29,750.26c192.12-99.83,103.29-195.77,41.29-182.85-15.19,3.17-22,5.91-22,5.91A35,35,0,0,1,766,560.65c122.65-43.12,217,127.19-39.6,194.64,0,0,3-2.65,3.86-5" transform="translate(-134.39)"/><path class="cls-2" d="M614.46,0s106.4,106.43-100.91,270.1c-166.24,131.29-37.91,206.15-.07,291.67-97-87.55-168.25-164.62-120.48-236.36C463.13,220.12,657.39,169.06,614.46,0" transform="translate(-134.39)"/><path class="cls-1" d="M415.31,1020.78c184.41,11.81,467.59-6.55,474.3-93.81,0,0-12.89,33.08-152.4,59.35-157.4,29.62-351.53,26.16-466.67,7.18,0,0,23.57,19.51,144.77,27.28" transform="translate(-134.39)"/></svg>