<svg id="Layer_1" data-name="Layer 1" xmlns="http://www.w3.org/2000/svg" viewBox="0 0 1001.38 813.44"><defs><style>.cls-1{fill:#fff;}.cls-2{fill:#265787;}.cls-3{fill:#ea7600;}</style></defs><path class="cls-1" d="M405,554.07C408.66,489,440.53,431.63,488.62,391c47.16-39.93,110.63-64.34,179.89-64.34S801.17,351.05,848.37,391c48,40.65,79.93,98,83.61,163,3.65,66.88-23.24,129-70.39,175.07-48.09,46.85-116.49,76.25-193.08,76.25s-145.12-29.4-193.18-76.25C428.14,683,401.33,620.88,405,554.07Z" transform="translate(-11.32 -102.51)"/><path class="cls-2" d="M533.34,559.88c1.87-33.4,18.23-62.83,42.9-83.69,24.2-20.48,56.77-33,92.3-33s68.08,12.53,92.29,33c24.66,20.86,41,50.29,42.9,83.65,1.87,34.32-11.92,66.2-36.12,89.83-24.67,24-59.77,39.13-99.07,39.13s-74.46-15.09-99.12-39.13C545.21,626,531.45,594.16,533.34,559.88Z" transform="translate(-11.32 -102.51)"/><path class="cls-3" d="M318,627.37c.23,13.07,4.39,38.46,10.65,58.3,13.14,42,35.43,80.82,66.44,115.05,31.83,35.18,71,63.44,116.29,83.51C559,905.3,610.56,916,664.11,916a374,374,0,0,0,152.6-32.25c45.27-20.26,84.43-48.64,116.2-83.84,31-34.38,53.26-73.29,66.43-115.27a289.45,289.45,0,0,0,10.42-128.24,297.12,297.12,0,0,0-42.37-116,323.46,323.46,0,0,0-77.29-85.22l.07-.05L577.35,114.93c-.28-.21-.51-.44-.81-.64-20.52-15.75-55-15.7-77.61.09-22.82,16-25.43,42.37-5.12,59l-.09.09L624.19,279.59,226.53,280H226c-32.87,0-64.47,21.6-70.72,48.85-6.43,27.77,15.89,50.8,50.07,50.92l0,.13,201.56-.39L47.18,655.61c-.46.33-1,.69-1.37,1-33.93,26-44.9,69.19-23.53,96.53C44,781,90.09,781,124.37,753.32l196.3-160.66S317.81,614.35,318,627.37ZM822.45,700c-40.44,41.21-97.07,64.58-158.34,64.7s-118-23.05-158.43-64.18a188.54,188.54,0,0,1-43.24-67.69,175.72,175.72,0,0,1-9.92-75.63A178.44,178.44,0,0,1,474.19,486a196.2,196.2,0,0,1,48.11-57.21c39.32-32,89.37-49.39,141.72-49.46s102.43,17.12,141.78,49.05a195.55,195.55,0,0,1,48.06,57,178.82,178.82,0,0,1,21.76,71.16,176.38,176.38,0,0,1-10,75.58A189.23,189.23,0,0,1,822.45,700Z" transform="translate(-11.32 -102.51)"/></svg>