<svg id="svg_logos" data-name="svg logos" xmlns="http://www.w3.org/2000/svg" viewBox="0 0 1024 1024"><defs><style>.cls-1{fill:#f6df19;}.cls-2{fill:#010101;}</style></defs><g id="javascript"><path class="cls-1" d="M0,0H1024V1024H0Z"/><path class="cls-2" d="M269.25,855.73l78.36-47.43c15.12,26.81,28.87,49.49,61.86,49.49,31.62,0,51.55-12.37,51.55-60.48V470.12h96.23V798.67c0,99.67-58.42,145-143.66,145-77,0-121.66-39.87-144.34-88"/><path class="cls-2" d="M609.52,845.42l78.36-45.37c20.62,33.69,47.43,58.43,94.86,58.43,39.87,0,65.3-19.94,65.3-47.43,0-33-26.12-44.68-70.12-63.92l-24-10.32c-69.43-29.55-115.48-66.67-115.48-145,0-72.17,55-127.17,140.91-127.17,61.18,0,105.17,21.31,136.79,77l-74.93,48.12c-16.5-29.56-34.36-41.24-61.86-41.24-28.18,0-46,17.87-46,41.24,0,28.87,17.87,40.55,59.11,58.43l24.06,10.31c81.79,35,127.85,70.79,127.85,151.21,0,86.62-68,134-159.47,134-89.36,0-147.1-42.61-175.27-98.29"/></g></svg>