<svg id="svg_logos" data-name="svg logos" xmlns="http://www.w3.org/2000/svg" viewBox="0 0 1024 843.24"><defs><style>.cls-1{fill:#f05026;}</style></defs><path id="substance_designer" data-name="substance designer" class="cls-1" d="M1001.63,582.71H842.07V318.35a46,46,0,0,0-45.93-45.93H531.78V112.86a20.43,20.43,0,0,0-17.66-22.37c-11.19-1.18-21.2,7.07-22.38,17.66V271.83h-265a46,46,0,0,0-45.92,45.93v265H22.49C11.3,581.53,1.29,589.77.11,600.37a20.44,20.44,0,0,0,17.67,22.38h162.5v265a46,46,0,0,0,45.92,45.92H796.14a46,46,0,0,0,45.93-45.92v-265h159.56a21.15,21.15,0,0,0,22.37-20C1024,591.54,1013.4,582.71,1001.63,582.71Zm-713-109.51L511.76,344.25l223.15,129V589.77l-102.45-33V532.66L511.17,463.19l-87.73,51.22,310.88,99.5V730.49l-222.56,129-222.56-129V613.91l103,32.39v24.14l120.11,69.47,89.5-51.81L288.61,589.19Z" transform="translate(0 -90.38)"/></svg>