<svg id="svg_logos" data-name="svg logos" xmlns="http://www.w3.org/2000/svg" viewBox="0 0 908.76 1024"><defs><style>.cls-1{fill:#529e45;}</style></defs><g id="nodejs"><path class="cls-1" d="M512,1024a82.44,82.44,0,0,1-39.51-10.35L347.37,939.33c-18.82-10.35-9.41-14.11-3.76-16,25.4-8.47,30.1-10.35,56.44-25.4,2.82-1.88,6.59-.94,9.41.94l96,57.39c3.77,1.88,8.47,1.88,11.29,0L892.06,739c3.76-1.88,5.65-5.64,5.65-10.34V294.92c0-4.7-1.89-8.46-5.65-10.34L516.7,68.2c-3.76-1.88-8.46-1.88-11.29,0L130.06,284.58c-3.77,1.88-5.65,6.58-5.65,10.34V728.61c0,3.76,1.88,8.46,5.65,10.34L232.6,798.22c55.5,28.22,90.31-4.7,90.31-37.63v-428a11.44,11.44,0,0,1,11.29-11.29h48a11.45,11.45,0,0,1,11.29,11.29v428c0,74.32-40.46,117.59-111,117.59-21.64,0-38.57,0-86.55-23.51L97.13,798.22a79.39,79.39,0,0,1-39.51-68.67V295.86a79.39,79.39,0,0,1,39.51-68.67L472.49,9.88c23.52-13.17,55.5-13.17,79,0L926.87,227.19a79.39,79.39,0,0,1,39.51,68.67V729.55a79.39,79.39,0,0,1-39.51,68.67L551.51,1015.53A96.2,96.2,0,0,1,512,1024ZM627.71,725.78c-164.63,0-198.5-75.26-198.5-139.23a11.44,11.44,0,0,1,11.29-11.28h48.92c5.65,0,10.35,3.76,10.35,9.4C507.3,634.53,528.93,659,628.65,659c79,0,112.89-17.87,112.89-60.21,0-24.46-9.41-42.33-132.64-54.56-102.54-10.35-166.52-32.93-166.52-114.77,0-76.2,64-121.36,171.22-121.36,120.42,0,179.68,41.4,187.21,131.71a15.16,15.16,0,0,1-2.82,8.46c-1.89,1.89-4.71,3.77-7.53,3.77H741.54a11,11,0,0,1-10.35-8.47c-11.29-51.74-40.45-68.67-117.59-68.67-86.55,0-96.9,30.1-96.9,52.68,0,27.28,12.23,35.75,128.89,50.8C761.3,493.42,815.86,515.06,815.86,596c-.94,82.79-68.67,129.82-188.15,129.82Z" transform="translate(-57.62)"/></g></svg>