<svg id="Layer_1" data-name="Layer 1" xmlns="http://www.w3.org/2000/svg" viewBox="0 0 256.4 250"><defs><style>.cls-1{fill:#001e36;}.cls-2{fill:#31a8ff;}</style></defs><g id="Layer_2" data-name="Layer 2"><path class="cls-1" d="M45.4,0H211a45.37,45.37,0,0,1,45.4,45.4V204.6A45.37,45.37,0,0,1,211,250H45.4A45.37,45.37,0,0,1,0,204.6V45.4A45.37,45.37,0,0,1,45.4,0Z"/><g id="LrC"><path class="cls-2" d="M90,176.7H29c-1.1,0-1.5-.6-1.5-1.9V65.6c0-1.1.4-1.5,1.4-1.5H47.8c.7,0,1.1.4,1.1,1.2V155H93.3c1,0,1.3.5,1.1,1.5l-2.8,18.6a2,2,0,0,1-.6,1.3A1.93,1.93,0,0,1,90,176.7Z"/><path class="cls-2" d="M105.2,91.2h16.9c1,0,1.6.5,2,1.7a9.15,9.15,0,0,1,.7,2.5c.2,1.1.3,2.2.4,3.3s.1,2.5.1,3.8a37.84,37.84,0,0,1,10.3-9.2,25.83,25.83,0,0,1,14.3-3.8c1,0,1.4.5,1.4,1.5v20.8c0,.9-.5,1.2-1.5,1.2a37.93,37.93,0,0,0-10.1.7,33.37,33.37,0,0,0-8,2.9,20.08,20.08,0,0,0-5.2,4v54.5c0,1.1-.4,1.5-1.3,1.5H106.6c-1.1,0-1.5-.5-1.5-1.7V115.7c0-2.6,0-5.2-.1-8s-.1-5.6-.2-8.3c-.1-2.4-.3-4.7-.6-7.1a2,2,0,0,1,.2-1A1.13,1.13,0,0,1,105.2,91.2Z"/><path class="cls-2" d="M227.1,75.4a24.56,24.56,0,0,0-7.2-1.8A99.53,99.53,0,0,0,209,73c-10.5,0-19.7,2.2-27.2,6.6a46.21,46.21,0,0,0-17.7,18.7c-4.2,7.9-6.2,17.3-6.2,27.8a66.92,66.92,0,0,0,2.4,18.8,49.85,49.85,0,0,0,6.8,14.6,43,43,0,0,0,24.1,17,58.67,58.67,0,0,0,15.6,2.1,80.23,80.23,0,0,0,11-.7,36.84,36.84,0,0,0,8.7-2.1,2.81,2.81,0,0,0,1.6-2.9V157a1.94,1.94,0,0,0-.5-1.6,1.34,1.34,0,0,0-1.7.1,31.59,31.59,0,0,1-7.5,1.8c-3.1.3-6.2.4-9.3.4a33.91,33.91,0,0,1-16.4-4.6,22.08,22.08,0,0,1-6.7-6.2,34.77,34.77,0,0,1-4.7-9.2,40.58,40.58,0,0,1-1.7-12.5,40,40,0,0,1,3.5-17.1,27.07,27.07,0,0,1,10-11.2,29.39,29.39,0,0,1,15.6-4.1,48.33,48.33,0,0,1,10,.9,24.19,24.19,0,0,1,7.7,2.6,1.71,1.71,0,0,0,1.4,0,1.91,1.91,0,0,0,.6-1.6V78A2.93,2.93,0,0,0,227.1,75.4Z"/></g></g></svg>